<mxfile host="Electron" agent="Mozilla/5.0 (Windows NT 10.0; Win64; x64) AppleWebKit/537.36 (KHTML, like Gecko) draw.io/24.7.8 Chrome/128.0.6613.36 Electron/32.0.1 Safari/537.36" version="24.7.8">
  <diagram id="C5RBs43oDa-KdzZeNtuy" name="Page-1">
    <mxGraphModel dx="780" dy="504" grid="1" gridSize="10" guides="1" tooltips="1" connect="1" arrows="1" fold="1" page="1" pageScale="1" pageWidth="827" pageHeight="1169" math="0" shadow="0">
      <root>
        <mxCell id="WIyWlLk6GJQsqaUBKTNV-0" />
        <mxCell id="WIyWlLk6GJQsqaUBKTNV-1" parent="WIyWlLk6GJQsqaUBKTNV-0" />
        <mxCell id="qj3uyWW1DWnCrWWgEMh9-2" value="" style="edgeStyle=orthogonalEdgeStyle;rounded=0;orthogonalLoop=1;jettySize=auto;html=1;" edge="1" parent="WIyWlLk6GJQsqaUBKTNV-1" source="qj3uyWW1DWnCrWWgEMh9-0" target="qj3uyWW1DWnCrWWgEMh9-1">
          <mxGeometry relative="1" as="geometry" />
        </mxCell>
        <mxCell id="qj3uyWW1DWnCrWWgEMh9-0" value="star" style="rounded=1;whiteSpace=wrap;html=1;" vertex="1" parent="WIyWlLk6GJQsqaUBKTNV-1">
          <mxGeometry x="130" y="80" width="210" height="60" as="geometry" />
        </mxCell>
        <mxCell id="qj3uyWW1DWnCrWWgEMh9-4" value="" style="edgeStyle=orthogonalEdgeStyle;rounded=0;orthogonalLoop=1;jettySize=auto;html=1;" edge="1" parent="WIyWlLk6GJQsqaUBKTNV-1" source="qj3uyWW1DWnCrWWgEMh9-1" target="qj3uyWW1DWnCrWWgEMh9-3">
          <mxGeometry relative="1" as="geometry" />
        </mxCell>
        <mxCell id="qj3uyWW1DWnCrWWgEMh9-1" value="input nilai N&lt;div&gt;&lt;br&gt;&lt;/div&gt;" style="shape=parallelogram;perimeter=parallelogramPerimeter;whiteSpace=wrap;html=1;fixedSize=1;rounded=1;" vertex="1" parent="WIyWlLk6GJQsqaUBKTNV-1">
          <mxGeometry x="140" y="190" width="190" height="60" as="geometry" />
        </mxCell>
        <mxCell id="qj3uyWW1DWnCrWWgEMh9-10" value="" style="edgeStyle=orthogonalEdgeStyle;rounded=0;orthogonalLoop=1;jettySize=auto;html=1;" edge="1" parent="WIyWlLk6GJQsqaUBKTNV-1" source="qj3uyWW1DWnCrWWgEMh9-3" target="qj3uyWW1DWnCrWWgEMh9-9">
          <mxGeometry relative="1" as="geometry" />
        </mxCell>
        <mxCell id="qj3uyWW1DWnCrWWgEMh9-25" value="" style="edgeStyle=orthogonalEdgeStyle;rounded=0;orthogonalLoop=1;jettySize=auto;html=1;" edge="1" parent="WIyWlLk6GJQsqaUBKTNV-1" source="qj3uyWW1DWnCrWWgEMh9-3" target="qj3uyWW1DWnCrWWgEMh9-24">
          <mxGeometry relative="1" as="geometry" />
        </mxCell>
        <mxCell id="qj3uyWW1DWnCrWWgEMh9-3" value="&lt;font style=&quot;font-size: 10px;&quot;&gt;input random for data in range&lt;/font&gt;" style="shape=step;perimeter=stepPerimeter;whiteSpace=wrap;html=1;fixedSize=1;rounded=1;" vertex="1" parent="WIyWlLk6GJQsqaUBKTNV-1">
          <mxGeometry x="140" y="300" width="190" height="90" as="geometry" />
        </mxCell>
        <mxCell id="qj3uyWW1DWnCrWWgEMh9-16" value="" style="edgeStyle=orthogonalEdgeStyle;rounded=0;orthogonalLoop=1;jettySize=auto;html=1;" edge="1" parent="WIyWlLk6GJQsqaUBKTNV-1" source="qj3uyWW1DWnCrWWgEMh9-7" target="qj3uyWW1DWnCrWWgEMh9-15">
          <mxGeometry relative="1" as="geometry" />
        </mxCell>
        <mxCell id="qj3uyWW1DWnCrWWgEMh9-7" value="" style="shape=waypoint;sketch=0;size=6;pointerEvents=1;points=[];fillColor=default;resizable=0;rotatable=0;perimeter=centerPerimeter;snapToPoint=1;rounded=1;" vertex="1" parent="WIyWlLk6GJQsqaUBKTNV-1">
          <mxGeometry x="450" y="530" width="20" height="20" as="geometry" />
        </mxCell>
        <mxCell id="qj3uyWW1DWnCrWWgEMh9-12" value="" style="edgeStyle=orthogonalEdgeStyle;rounded=0;orthogonalLoop=1;jettySize=auto;html=1;" edge="1" parent="WIyWlLk6GJQsqaUBKTNV-1" source="qj3uyWW1DWnCrWWgEMh9-9" target="qj3uyWW1DWnCrWWgEMh9-11">
          <mxGeometry relative="1" as="geometry" />
        </mxCell>
        <mxCell id="qj3uyWW1DWnCrWWgEMh9-9" value="&lt;font style=&quot;font-size: 10px;&quot;&gt;input random b=random.uniform (0.5&lt;/font&gt;)" style="whiteSpace=wrap;html=1;rounded=1;" vertex="1" parent="WIyWlLk6GJQsqaUBKTNV-1">
          <mxGeometry x="170" y="440" width="130" height="75" as="geometry" />
        </mxCell>
        <mxCell id="qj3uyWW1DWnCrWWgEMh9-14" value="" style="edgeStyle=orthogonalEdgeStyle;rounded=0;orthogonalLoop=1;jettySize=auto;html=1;" edge="1" parent="WIyWlLk6GJQsqaUBKTNV-1" source="qj3uyWW1DWnCrWWgEMh9-11" target="qj3uyWW1DWnCrWWgEMh9-13">
          <mxGeometry relative="1" as="geometry" />
        </mxCell>
        <mxCell id="qj3uyWW1DWnCrWWgEMh9-11" value="&lt;span style=&quot;font-size: 10px;&quot;&gt;import random print(&quot;data ke:&quot;,a==&amp;gt;,b)&lt;/span&gt;" style="whiteSpace=wrap;html=1;rounded=1;" vertex="1" parent="WIyWlLk6GJQsqaUBKTNV-1">
          <mxGeometry x="170" y="580" width="130" height="75" as="geometry" />
        </mxCell>
        <mxCell id="qj3uyWW1DWnCrWWgEMh9-13" value="END" style="whiteSpace=wrap;html=1;rounded=1;" vertex="1" parent="WIyWlLk6GJQsqaUBKTNV-1">
          <mxGeometry x="175" y="710" width="120" height="60" as="geometry" />
        </mxCell>
        <mxCell id="qj3uyWW1DWnCrWWgEMh9-18" value="" style="edgeStyle=orthogonalEdgeStyle;rounded=0;orthogonalLoop=1;jettySize=auto;html=1;" edge="1" parent="WIyWlLk6GJQsqaUBKTNV-1" source="qj3uyWW1DWnCrWWgEMh9-15" target="qj3uyWW1DWnCrWWgEMh9-17">
          <mxGeometry relative="1" as="geometry" />
        </mxCell>
        <mxCell id="qj3uyWW1DWnCrWWgEMh9-21" value="" style="edgeStyle=orthogonalEdgeStyle;rounded=0;orthogonalLoop=1;jettySize=auto;html=1;" edge="1" parent="WIyWlLk6GJQsqaUBKTNV-1" source="qj3uyWW1DWnCrWWgEMh9-15" target="qj3uyWW1DWnCrWWgEMh9-20">
          <mxGeometry relative="1" as="geometry" />
        </mxCell>
        <mxCell id="qj3uyWW1DWnCrWWgEMh9-15" value="" style="shape=waypoint;sketch=0;size=6;pointerEvents=1;points=[];fillColor=default;resizable=0;rotatable=0;perimeter=centerPerimeter;snapToPoint=1;rounded=1;" vertex="1" parent="WIyWlLk6GJQsqaUBKTNV-1">
          <mxGeometry x="395" y="530" width="20" height="20" as="geometry" />
        </mxCell>
        <mxCell id="qj3uyWW1DWnCrWWgEMh9-19" value="" style="edgeStyle=orthogonalEdgeStyle;rounded=0;orthogonalLoop=1;jettySize=auto;html=1;" edge="1" parent="WIyWlLk6GJQsqaUBKTNV-1" source="qj3uyWW1DWnCrWWgEMh9-17" target="qj3uyWW1DWnCrWWgEMh9-9">
          <mxGeometry relative="1" as="geometry" />
        </mxCell>
        <mxCell id="qj3uyWW1DWnCrWWgEMh9-17" value="" style="shape=waypoint;sketch=0;size=6;pointerEvents=1;points=[];fillColor=default;resizable=0;rotatable=0;perimeter=centerPerimeter;snapToPoint=1;rounded=1;" vertex="1" parent="WIyWlLk6GJQsqaUBKTNV-1">
          <mxGeometry x="395" y="467.5" width="20" height="20" as="geometry" />
        </mxCell>
        <mxCell id="qj3uyWW1DWnCrWWgEMh9-22" value="" style="edgeStyle=orthogonalEdgeStyle;rounded=0;orthogonalLoop=1;jettySize=auto;html=1;" edge="1" parent="WIyWlLk6GJQsqaUBKTNV-1" source="qj3uyWW1DWnCrWWgEMh9-20" target="qj3uyWW1DWnCrWWgEMh9-11">
          <mxGeometry relative="1" as="geometry" />
        </mxCell>
        <mxCell id="qj3uyWW1DWnCrWWgEMh9-20" value="" style="shape=waypoint;sketch=0;size=6;pointerEvents=1;points=[];fillColor=default;resizable=0;rotatable=0;perimeter=centerPerimeter;snapToPoint=1;rounded=1;" vertex="1" parent="WIyWlLk6GJQsqaUBKTNV-1">
          <mxGeometry x="395" y="607.5" width="20" height="20" as="geometry" />
        </mxCell>
        <mxCell id="qj3uyWW1DWnCrWWgEMh9-29" value="" style="edgeStyle=orthogonalEdgeStyle;rounded=0;orthogonalLoop=1;jettySize=auto;html=1;" edge="1" parent="WIyWlLk6GJQsqaUBKTNV-1" source="qj3uyWW1DWnCrWWgEMh9-24" target="qj3uyWW1DWnCrWWgEMh9-28">
          <mxGeometry relative="1" as="geometry" />
        </mxCell>
        <mxCell id="qj3uyWW1DWnCrWWgEMh9-24" value="" style="shape=waypoint;sketch=0;size=6;pointerEvents=1;points=[];fillColor=default;resizable=0;rotatable=0;perimeter=centerPerimeter;snapToPoint=1;rounded=1;" vertex="1" parent="WIyWlLk6GJQsqaUBKTNV-1">
          <mxGeometry x="450" y="335" width="20" height="20" as="geometry" />
        </mxCell>
        <mxCell id="qj3uyWW1DWnCrWWgEMh9-30" value="" style="edgeStyle=orthogonalEdgeStyle;rounded=0;orthogonalLoop=1;jettySize=auto;html=1;" edge="1" parent="WIyWlLk6GJQsqaUBKTNV-1" source="qj3uyWW1DWnCrWWgEMh9-28" target="qj3uyWW1DWnCrWWgEMh9-7">
          <mxGeometry relative="1" as="geometry" />
        </mxCell>
        <mxCell id="qj3uyWW1DWnCrWWgEMh9-28" value="" style="shape=waypoint;sketch=0;size=6;pointerEvents=1;points=[];fillColor=default;resizable=0;rotatable=0;perimeter=centerPerimeter;snapToPoint=1;rounded=1;" vertex="1" parent="WIyWlLk6GJQsqaUBKTNV-1">
          <mxGeometry x="450" y="435" width="20" height="20" as="geometry" />
        </mxCell>
      </root>
    </mxGraphModel>
  </diagram>
</mxfile>
